<svg version="1.1" id="Layer_1" xmlns="http://www.w3.org/2000/svg" xmlns:xlink="http://www.w3.org/1999/xlink" x="0px" y="0px"
	 width="100%" viewBox="0 0 512 512" enable-background="new 0 0 512 512" xml:space="preserve">
<path fill="none" opacity="0" stroke="none" 
	d="
M345.000000,513.000000 
	C230.027939,513.000000 115.555870,513.000000 1.041900,513.000000 
	C1.041900,342.402924 1.041900,171.805817 1.041900,1.104355 
	C171.555405,1.104355 342.110901,1.104355 512.833191,1.104355 
	C512.833191,171.666534 512.833191,342.333252 512.833191,513.000000 
	C457.139069,513.000000 401.319550,513.000000 345.000000,513.000000 
M437.000305,238.500000 
	C436.666840,207.415848 436.585999,176.325790 435.857758,145.250885 
	C435.615143,134.897827 429.871429,126.383438 422.637787,119.376419 
	C414.321381,111.320488 403.776550,107.716087 391.908325,106.838745 
	C391.908325,96.817406 391.908325,87.069824 391.908325,77.304581 
	C381.389191,77.304581 371.327484,77.304581 360.798706,77.304581 
	C360.798706,87.338524 360.798706,97.075226 360.798706,106.642937 
	C291.272522,106.642937 222.219482,106.642937 152.694855,106.642937 
	C152.694855,96.554955 152.694855,86.818985 152.694855,77.243279 
	C142.276474,77.243279 132.333069,77.243279 121.958664,77.243279 
	C121.958664,87.235161 121.958664,96.993652 121.958664,106.482941 
	C119.435684,107.058029 117.408058,107.679451 115.334106,107.968559 
	C92.103928,111.206818 77.163704,130.593201 77.080238,153.237534 
	C76.848686,216.057861 76.999779,278.879608 76.999664,341.700806 
	C76.999657,343.322113 76.999657,344.943390 76.999657,347.029541 
	C92.163834,347.029541 106.896629,347.029541 122.088150,347.029541 
	C122.088150,377.225494 122.088150,406.953430 122.088150,436.690247 
	C132.621399,436.690247 142.683243,436.690247 153.207397,436.690247 
	C153.207397,406.654846 153.207397,376.927032 153.207397,347.357544 
	C222.729294,347.357544 291.782318,347.357544 361.302002,347.357544 
	C361.302002,377.441681 361.302002,407.169678 361.302002,436.760040 
	C371.715759,436.760040 381.659668,436.760040 392.067780,436.760040 
	C392.067780,406.795898 392.067780,377.067963 392.067780,346.873596 
	C407.262482,346.873596 421.995270,346.873596 437.000305,346.873596 
	C437.000305,310.768311 437.000305,275.134155 437.000305,238.500000 
z"/>
<path fill="#FFB345" opacity="1.000000" stroke="none" 
	d="
M437.000305,239.000000 
	C437.000305,275.134155 437.000305,310.768311 437.000305,346.873596 
	C421.995270,346.873596 407.262482,346.873596 392.067780,346.873596 
	C392.067780,377.067963 392.067780,406.795898 392.067780,436.760040 
	C381.659668,436.760040 371.715759,436.760040 361.302002,436.760040 
	C361.302002,407.169678 361.302002,377.441681 361.302002,347.357544 
	C291.782318,347.357544 222.729294,347.357544 153.207397,347.357544 
	C153.207397,376.927032 153.207397,406.654846 153.207397,436.690247 
	C142.683243,436.690247 132.621399,436.690247 122.088150,436.690247 
	C122.088150,406.953430 122.088150,377.225494 122.088150,347.029541 
	C106.896629,347.029541 92.163834,347.029541 76.999657,347.029541 
	C76.999657,344.943390 76.999657,343.322113 76.999664,341.700806 
	C76.999779,278.879608 76.848686,216.057861 77.080238,153.237534 
	C77.163704,130.593201 92.103928,111.206818 115.334106,107.968559 
	C117.408058,107.679451 119.435684,107.058029 121.958664,106.482941 
	C121.958664,96.993652 121.958664,87.235161 121.958664,77.243279 
	C132.333069,77.243279 142.276474,77.243279 152.694855,77.243279 
	C152.694855,86.818985 152.694855,96.554955 152.694855,106.642937 
	C222.219482,106.642937 291.272522,106.642937 360.798706,106.642937 
	C360.798706,97.075226 360.798706,87.338524 360.798706,77.304581 
	C371.327484,77.304581 381.389191,77.304581 391.908325,77.304581 
	C391.908325,87.069824 391.908325,96.817406 391.908325,106.838745 
	C403.776550,107.716087 414.321381,111.320488 422.637787,119.376419 
	C429.871429,126.383438 435.615143,134.897827 435.857758,145.250885 
	C436.585999,176.325790 436.666840,207.415848 437.000305,239.000000 
z"/>
</svg>